<svg width="27" height="27" viewBox="0 0 27 27" fill="none" xmlns="http://www.w3.org/2000/svg">
<path d="M5.55592 20.0882C6.65384 19.2486 7.88093 18.5866 9.23717 18.1022C10.5934 17.6178 12.0143 17.3757 13.4997 17.3757C14.9851 17.3757 16.4059 17.6178 17.7622 18.1022C19.1184 18.5866 20.3455 19.2486 21.4434 20.0882C22.1969 19.2055 22.7835 18.2045 23.2033 17.085C23.6231 15.9656 23.833 14.7708 23.833 13.5007C23.833 10.6375 22.8266 8.19944 20.8137 6.18659C18.8009 4.17374 16.3629 3.16732 13.4997 3.16732C10.6365 3.16732 8.19846 4.17374 6.18561 6.18659C4.17277 8.19944 3.16634 10.6375 3.16634 13.5007C3.16634 14.7708 3.37624 15.9656 3.79603 17.085C4.21582 18.2045 4.80245 19.2055 5.55592 20.0882ZM13.4997 14.7923C12.2295 14.7923 11.1585 14.3564 10.2867 13.4845C9.41478 12.6126 8.97884 11.5416 8.97884 10.2715C8.97884 9.00135 9.41478 7.93034 10.2867 7.05846C11.1585 6.18659 12.2295 5.75065 13.4997 5.75065C14.7698 5.75065 15.8408 6.18659 16.7127 7.05846C17.5846 7.93034 18.0205 9.00135 18.0205 10.2715C18.0205 11.5416 17.5846 12.6126 16.7127 13.4845C15.8408 14.3564 14.7698 14.7923 13.4997 14.7923ZM13.4997 26.4173C11.7129 26.4173 10.0337 26.0783 8.46217 25.4001C6.89065 24.722 5.52363 23.8017 4.36113 22.6392C3.19863 21.4767 2.27832 20.1097 1.6002 18.5382C0.92207 16.9666 0.583008 15.2875 0.583008 13.5007C0.583008 11.7138 0.92207 10.0347 1.6002 8.46315C2.27832 6.89162 3.19863 5.52461 4.36113 4.36211C5.52363 3.19961 6.89065 2.2793 8.46217 1.60117C10.0337 0.923047 11.7129 0.583984 13.4997 0.583984C15.2865 0.583984 16.9656 0.923047 18.5372 1.60117C20.1087 2.2793 21.4757 3.19961 22.6382 4.36211C23.8007 5.52461 24.721 6.89162 25.3992 8.46315C26.0773 10.0347 26.4163 11.7138 26.4163 13.5007C26.4163 15.2875 26.0773 16.9666 25.3992 18.5382C24.721 20.1097 23.8007 21.4767 22.6382 22.6392C21.4757 23.8017 20.1087 24.722 18.5372 25.4001C16.9656 26.0783 15.2865 26.4173 13.4997 26.4173Z" fill="#25307F"/>
</svg>
