<svg width="24" height="31" viewBox="0 0 24 31" fill="none" xmlns="http://www.w3.org/2000/svg">
<mask id="mask0_883_2290" style="mask-type:alpha" maskUnits="userSpaceOnUse" x="0" y="0" width="24" height="31">
<rect y="0.904297" width="24" height="29.7143" fill="#D9D9D9"/>
</mask>
<g mask="url(#mask0_883_2290)">
<path d="M14 17.0003C13.1667 17.0003 12.4583 16.6392 11.875 15.9169C11.2917 15.1947 11 14.3177 11 13.286C11 12.2542 11.2917 11.3773 11.875 10.655C12.4583 9.93282 13.1667 9.57171 14 9.57171C14.8333 9.57171 15.5417 9.93282 16.125 10.655C16.7083 11.3773 17 12.2542 17 13.286C17 14.3177 16.7083 15.1947 16.125 15.9169C15.5417 16.6392 14.8333 17.0003 14 17.0003ZM7 20.7146C6.45 20.7146 5.97917 20.4721 5.5875 19.9872C5.19583 19.5023 5 18.9193 5 18.2384V8.33361C5 7.65266 5.19583 7.06972 5.5875 6.5848C5.97917 6.09988 6.45 5.85742 7 5.85742H21C21.55 5.85742 22.0208 6.09988 22.4125 6.5848C22.8042 7.06972 23 7.65266 23 8.33361V18.2384C23 18.9193 22.8042 19.5023 22.4125 19.9872C22.0208 20.4721 21.55 20.7146 21 20.7146H7ZM9 18.2384H19C19 17.5574 19.1958 16.9745 19.5875 16.4896C19.9792 16.0046 20.45 15.7622 21 15.7622V10.8098C20.45 10.8098 19.9792 10.5673 19.5875 10.0824C19.1958 9.5975 19 9.01456 19 8.33361H9C9 9.01456 8.80417 9.5975 8.4125 10.0824C8.02083 10.5673 7.55 10.8098 7 10.8098V15.7622C7.55 15.7622 8.02083 16.0046 8.4125 16.4896C8.80417 16.9745 9 17.5574 9 18.2384ZM20 25.6669H3C2.45 25.6669 1.97917 25.4245 1.5875 24.9396C1.19583 24.4546 1 23.8717 1 23.1908V9.57171H3V23.1908H20V25.6669Z" fill="#25307F"/>
</g>
</svg>
